# xmcd
#
# Track frame offsets: 
#        150
#        11042
#        23414
#        33066
#        44146
#        56104
#        67929
#        78131
#        88626
#        100730
#        110633
#        122173
#        134005
#        147530
#        158408
#        169593
#        180854
#        189238
#        201015
#        213906
#        224568
#        238021
#        248342
#        259220
#        271972
#        285351
#        294717
#        307406
#        320060
#
# Disc length: 4379 seconds
#
# Revision: 0
# Processed by: cddbd v1.5.2PL0 Copyright (c) Steve Scherf et al.
# Submitted via: ExactAudioCopy v1.3
#
DISCID=a311191d
DTITLE=Various Artist - Thee History of New orleans Rhythm and Blues Vo
DTITLE=lume 3 1953-1955
DYEAR=2013
DGENRE=R&B
TTITLE0=Fats Domino - Ain't It A Shame
TTITLE1=Smiley Lewis - I Hear You Knocking
TTITLE2=The Hawks - It's Too Late Now
TTITLE3=James Booker - Doing The Hambone
TTITLE4=The Kidds - Drunk, Drunk, Drunk
TTITLE5=Little Richard - I'm Just A Lonely Guy
TTITLE6=Ernest Kador - So Glad You're Mine
TTITLE7=Earl King - Little Girl
TTITLE8=Lightning Junior and the Empires (Champion Jack Dupree - Somebod
TTITLE8=y Changed The Lock
TTITLE9=The Hawketts - Mardi Gras Mambo
TTITLE10=Al Collins - I Got The Blues For You
TTITLE11=Li'l Millet and His Creoles - Rich Woman
TTITLE12=Champion Jack Dupree With Mr. Bear - Walking The Blues
TTITLE13=Earl King - Those Lonely, Lonely Nights
TTITLE14=Wee Willie Wayne - Travelin' Mood
TTITLE15=Huey "Piano" Smith - We Like Mambo
TTITLE16=Big Boy Myles and The Sha-Weez - Who's Been Fooling You?
TTITLE17=The Spiders - Witchcraft
TTITLE18=Lloyd Lambert - Heavy Sugar
TTITLE19=Guitar Slim - I Got Sumpin' For You
TTITLE20=Champion Jack Dupree - Stumbling Block
TTITLE21=Fats Domino - Poor Me
TTITLE22=Little Richard - Tutti Frutti
TTITLE23=Bobby Charles - See You Later, Alligator
TTITLE24=Elmore James and The Broomdusters - Goodbye Baby
TTITLE25=Earl King and The Kings - 'Til I Say Well Done
TTITLE26=Nathan Abshire - Crying Pinegrove Blues
TTITLE27=Boozoo Chavis - Forty One Days
TTITLE28=Clifton Chenier - Ay-TeTe Fe
EXTD=
EXTT0=
EXTT1=
EXTT2=
EXTT3=
EXTT4=
EXTT5=
EXTT6=
EXTT7=
EXTT8=
EXTT9=
EXTT10=
EXTT11=
EXTT12=
EXTT13=
EXTT14=
EXTT15=
EXTT16=
EXTT17=
EXTT18=
EXTT19=
EXTT20=
EXTT21=
EXTT22=
EXTT23=
EXTT24=
EXTT25=
EXTT26=
EXTT27=
EXTT28=
PLAYORDER=
